<?xml version="1.0" standalone="no"?>
<!DOCTYPE svg PUBLIC "-//W3C//DTD SVG 20010904//EN"
 "http://www.w3.org/TR/2001/REC-SVG-20010904/DTD/svg10.dtd">
<svg version="1.0" xmlns="http://www.w3.org/2000/svg"
 width="512.000000pt" height="512.000000pt" viewBox="0 0 512.000000 512.000000"
 preserveAspectRatio="xMidYMid meet">
<metadata>
Created by potrace 1.11, written by Peter Selinger 2001-2013
</metadata>
<g transform="translate(0.000000,512.000000) scale(0.100000,-0.100000)"
fill="#000000" stroke="none">
<path d="M2706 5109 c-49 -5 -91 -10 -93 -12 -4 -4 45 -589 50 -594 4 -4 589
45 594 50 3 4 -35 484 -43 535 l-5 32 -207 -1 c-114 -1 -247 -6 -296 -10z"/>
<path d="M3460 5112 c0 -4 -13 -84 -30 -177 -16 -93 -28 -170 -26 -172 5 -5
579 -103 583 -99 2 1 19 97 38 212 20 115 38 217 41 227 5 16 -14 17 -300 17
-168 0 -306 -4 -306 -8z"/>
<path d="M4200 5113 c0 -20 30 -247 33 -249 3 -4 588 64 592 68 2 2 -2 45 -7
96 l-11 92 -303 0 c-167 0 -304 -3 -304 -7z"/>
<path d="M4980 5030 l0 -90 70 0 70 0 0 90 0 90 -70 0 -70 0 0 -90z"/>
<path d="M90 4730 l0 -300 300 0 300 0 0 300 0 300 -300 0 -300 0 0 -300z"/>
<path d="M710 4730 l0 -300 300 0 300 0 0 300 0 300 -300 0 -300 0 0 -300z"/>
<path d="M1330 4730 l0 -300 300 0 300 0 0 300 0 300 -300 0 -300 0 0 -300z"/>
<path d="M1950 4730 l0 -300 300 0 300 0 0 300 0 300 -300 0 -300 0 0 -300z"/>
<path d="M5010 4430 l0 -300 55 0 55 0 0 300 0 300 -55 0 -55 0 0 -300z"/>
<path d="M4135 4628 c-19 -110 -84 -563 -81 -566 6 -5 590 -92 594 -88 5 6 92
590 88 594 -2 1 -122 21 -267 42 -145 22 -278 42 -296 45 -30 5 -32 4 -38 -27z"/>
<path d="M3693 4535 c-22 -7 -47 -9 -54 -5 -6 5 -29 2 -50 -5 -21 -8 -51 -13
-66 -11 -15 1 -41 -2 -58 -6 -16 -5 -55 -11 -85 -14 -30 -3 -66 -7 -80 -9 -14
-2 -35 -4 -47 -4 -20 -1 -21 -5 -18 -63 2 -35 8 -75 13 -89 6 -14 7 -32 2 -39
-4 -7 -2 -30 5 -51 8 -21 13 -51 11 -66 -1 -15 2 -41 6 -58 5 -16 11 -50 13
-75 2 -25 7 -65 10 -90 4 -25 7 -50 8 -57 0 -14 108 -10 148 5 14 6 32 7 39 2
7 -4 30 -2 51 5 21 8 51 13 66 11 15 -1 42 2 58 6 17 5 50 11 75 13 25 2 65 7
90 10 25 4 50 7 57 8 14 0 10 108 -5 148 -6 14 -7 32 -2 39 4 7 2 30 -5 51 -8
21 -13 51 -11 66 1 15 -2 42 -6 58 -5 17 -11 55 -14 85 -3 30 -7 66 -9 80 -2
14 -4 34 -4 46 -1 17 -8 20 -48 21 -27 0 -67 -5 -90 -12z"/>
<path d="M90 4110 l0 -300 300 0 300 0 0 300 0 300 -300 0 -300 0 0 -300z"/>
<path d="M4860 3710 l0 -300 130 0 130 0 0 300 0 300 -130 0 -130 0 0 -300z"/>
<path d="M90 3490 l0 -300 300 0 300 0 0 300 0 300 -300 0 -300 0 0 -300z"/>
<path d="M1330 3490 l0 -300 300 0 300 0 0 300 0 300 -300 0 -300 0 0 -300z"/>
<path d="M4910 3248 c-54 -7 -149 -14 -305 -23 -44 -3 -85 -7 -91 -9 -12 -5
-12 -97 1 -200 4 -29 8 -79 10 -111 6 -129 16 -261 20 -272 4 -12 98 -11 193
3 24 3 76 8 115 10 40 2 115 8 167 12 l95 7 2 125 c2 85 -5 180 -20 295 l-22
170 -55 0 c-30 1 -80 -3 -110 -7z"/>
<path d="M90 2870 l0 -300 300 0 300 0 0 300 0 300 -300 0 -300 0 0 -300z"/>
<path d="M2570 2870 l0 -300 300 0 300 0 0 300 0 300 -300 0 -300 0 0 -300z"/>
<path d="M3190 2870 l0 -300 300 0 300 0 0 300 0 300 -300 0 -300 0 0 -300z"/>
<path d="M90 2250 l0 -300 300 0 300 0 0 300 0 300 -300 0 -300 0 0 -300z"/>
<path d="M1330 2250 l0 -300 300 0 300 0 0 300 0 300 -300 0 -300 0 0 -300z"/>
<path d="M4430 2250 l0 -300 300 0 300 0 0 300 0 300 -300 0 -300 0 0 -300z"/>
<path d="M90 1630 l0 -300 300 0 300 0 0 300 0 300 -300 0 -300 0 0 -300z"/>
<path d="M3810 1630 l0 -300 300 0 300 0 0 300 0 300 -300 0 -300 0 0 -300z"/>
<path d="M4430 1630 l0 -300 300 0 300 0 0 300 0 300 -300 0 -300 0 0 -300z"/>
<path d="M90 1010 l0 -300 300 0 300 0 0 300 0 300 -300 0 -300 0 0 -300z"/>
<path d="M710 1010 l0 -300 300 0 300 0 0 300 0 300 -300 0 -300 0 0 -300z"/>
<path d="M1330 1010 l0 -300 300 0 300 0 0 300 0 300 -300 0 -300 0 0 -300z"/>
<path d="M2570 1010 l0 -300 300 0 300 0 0 300 0 300 -300 0 -300 0 0 -300z"/>
<path d="M3190 1010 l0 -300 300 0 300 0 0 300 0 300 -300 0 -300 0 0 -300z"/>
<path d="M4430 1010 l0 -300 300 0 300 0 0 300 0 300 -300 0 -300 0 0 -300z"/>
<path d="M90 390 l0 -300 300 0 300 0 0 300 0 300 -300 0 -300 0 0 -300z"/>
<path d="M710 390 l0 -300 300 0 300 0 0 300 0 300 -300 0 -300 0 0 -300z"/>
<path d="M1330 390 l0 -300 300 0 300 0 0 300 0 300 -300 0 -300 0 0 -300z"/>
<path d="M1950 390 l0 -300 300 0 300 0 0 300 0 300 -300 0 -300 0 0 -300z"/>
<path d="M2570 390 l0 -300 300 0 300 0 0 300 0 300 -300 0 -300 0 0 -300z"/>
<path d="M3190 390 l0 -300 300 0 300 0 0 300 0 300 -300 0 -300 0 0 -300z"/>
<path d="M3810 390 l0 -300 300 0 300 0 0 300 0 300 -300 0 -300 0 0 -300z"/>
<path d="M4430 390 l0 -300 300 0 300 0 0 300 0 300 -300 0 -300 0 0 -300z"/>
</g>
</svg>
